<svg width="45" height="45" viewBox="0 0 45 45" fill="none" xmlns="http://www.w3.org/2000/svg">
<g clip-path="url(#clip0_2_85)">
<path d="M37.6728 7.68679C34.8433 6.3885 31.8091 5.43198 28.6367 4.88413C28.5789 4.87356 28.5212 4.89998 28.4914 4.95283C28.1012 5.64688 27.6689 6.55232 27.3663 7.26399C23.9541 6.75315 20.5594 6.75315 17.2172 7.26399C16.9145 6.5365 16.4665 5.64688 16.0745 4.95283C16.0448 4.90175 15.9871 4.87532 15.9293 4.88413C12.7586 5.43022 9.72439 6.38675 6.89314 7.68679C6.86863 7.69736 6.84762 7.71499 6.83368 7.73788C1.07843 16.3361 -0.498175 24.723 0.275253 33.0059C0.278753 33.0464 0.301501 33.0852 0.332998 33.1098C4.13015 35.8983 7.80834 37.5912 11.4182 38.7133C11.476 38.731 11.5372 38.7098 11.574 38.6622C12.4279 37.4961 13.1891 36.2666 13.8417 34.9735C13.8802 34.8978 13.8435 34.8079 13.7648 34.778C12.5574 34.32 11.4077 33.7616 10.3018 33.1274C10.2143 33.0763 10.2073 32.9512 10.2878 32.8913C10.5205 32.7169 10.7533 32.5355 10.9755 32.3523C11.0157 32.3188 11.0718 32.3118 11.119 32.3329C18.3843 35.65 26.2499 35.65 33.4294 32.3329C33.4767 32.31 33.5327 32.3171 33.5747 32.3505C33.797 32.5337 34.0297 32.7169 34.2641 32.8913C34.3446 32.9512 34.3394 33.0763 34.2519 33.1274C33.146 33.7739 31.9963 34.32 30.7872 34.7762C30.7085 34.8062 30.6735 34.8978 30.712 34.9735C31.3786 36.2647 32.1398 37.4943 32.978 38.6605C33.013 38.7098 33.076 38.731 33.1337 38.7133C36.7611 37.5912 40.4393 35.8983 44.2364 33.1098C44.2697 33.0852 44.2907 33.0481 44.2942 33.0076C45.2198 23.4317 42.7438 15.1136 37.7305 7.73963C37.7183 7.71499 37.6973 7.69736 37.6728 7.68679ZM14.9267 27.9625C12.7393 27.9625 10.937 25.9543 10.937 23.4881C10.937 21.0219 12.7044 19.0137 14.9267 19.0137C17.1664 19.0137 18.9513 21.0395 18.9163 23.4881C18.9163 25.9543 17.1489 27.9625 14.9267 27.9625ZM29.6778 27.9625C27.4905 27.9625 25.6882 25.9543 25.6882 23.4881C25.6882 21.0219 27.4555 19.0137 29.6778 19.0137C31.9176 19.0137 33.7024 21.0395 33.6675 23.4881C33.6675 25.9543 31.9176 27.9625 29.6778 27.9625Z" fill="url(#paint0_linear_2_85)"/>
</g>
<defs>
<linearGradient id="paint0_linear_2_85" x1="22.2886" y1="4.88184" x2="22.2886" y2="38.7195" gradientUnits="userSpaceOnUse">
<stop stop-color="#FF0190"/>
<stop offset="1" stop-color="#B903FD"/>
</linearGradient>
<clipPath id="clip0_2_85">
<rect width="44.3936" height="44.3936" fill="white" transform="translate(0.0917969)"/>
</clipPath>
</defs>
</svg>
