<svg width="45" height="45" viewBox="0 0 45 45" fill="none" xmlns="http://www.w3.org/2000/svg">
<g clip-path="url(#clip0_2_73)">
<path d="M44.3936 22.1968C44.3936 9.93783 34.4557 0 22.1968 0C9.93783 0 0 9.93783 0 22.1968C0 33.2757 8.117 42.4587 18.7285 44.1239V28.613H13.0926V22.1968H18.7285V17.3066C18.7285 11.7435 22.0424 8.67062 27.1126 8.67062C29.5404 8.67062 32.0813 9.10415 32.0813 9.10415V14.5666H29.2824C26.5252 14.5666 25.665 16.2778 25.665 18.0349V22.1968H31.8212L30.837 28.613H25.665V44.1239C36.2766 42.4587 44.3936 33.2757 44.3936 22.1968Z" fill="url(#paint0_linear_2_73)"/>
<path d="M30.8372 28.6133L31.8213 22.1971H25.6652V18.0352C25.6652 16.2798 26.5253 14.5669 29.2826 14.5669H32.0814V9.10443C32.0814 9.10443 29.5414 8.6709 27.1127 8.6709C22.0426 8.6709 18.7287 11.7438 18.7287 17.3068V22.1971H13.0928V28.6133H18.7287V44.1242C21.0269 44.4837 23.367 44.4837 25.6652 44.1242V28.6133H30.8372Z" fill="white"/>
</g>
<defs>
<linearGradient id="paint0_linear_2_73" x1="22.1968" y1="0" x2="22.1968" y2="44.1239" gradientUnits="userSpaceOnUse">
<stop stop-color="#FF0190"/>
<stop offset="1" stop-color="#B903FD"/>
</linearGradient>
<clipPath id="clip0_2_73">
<rect width="44.3936" height="44.3936" fill="white"/>
</clipPath>
</defs>
</svg>
