<svg width="45" height="45" viewBox="0 0 45 45" fill="none" xmlns="http://www.w3.org/2000/svg">
<g clip-path="url(#clip0_2_96)">
<path d="M22.2271 3.99715C28.1578 3.99715 28.8601 4.02317 31.1925 4.12721C33.3601 4.22259 34.5307 4.58676 35.311 4.89023C36.3428 5.28908 37.0885 5.77463 37.8602 6.54632C38.6405 7.32667 39.1174 8.06367 39.5163 9.09548C39.8197 9.87583 40.1839 11.055 40.2793 13.214C40.3833 15.5551 40.4093 16.2574 40.4093 22.1794C40.4093 28.1101 40.3833 28.8125 40.2793 31.1449C40.1839 33.3125 39.8197 34.483 39.5163 35.2634C39.1174 36.2952 38.6319 37.0409 37.8602 37.8126C37.0798 38.5929 36.3428 39.0698 35.311 39.4687C34.5307 39.7721 33.3515 40.1363 31.1925 40.2317C28.8514 40.3357 28.1491 40.3617 22.2271 40.3617C16.2964 40.3617 15.594 40.3357 13.2616 40.2317C11.094 40.1363 9.92345 39.7721 9.14309 39.4687C8.11129 39.0698 7.36562 38.5842 6.59393 37.8126C5.81357 37.0322 5.33669 36.2952 4.93784 35.2634C4.63437 34.483 4.27021 33.3038 4.17483 31.1449C4.07078 28.8038 4.04477 28.1015 4.04477 22.1794C4.04477 16.2487 4.07078 15.5464 4.17483 13.214C4.27021 11.0464 4.63437 9.87583 4.93784 9.09548C5.33669 8.06367 5.82225 7.318 6.59393 6.54632C7.37429 5.76596 8.11129 5.28908 9.14309 4.89023C9.92345 4.58676 11.1027 4.22259 13.2616 4.12721C15.594 4.02317 16.2964 3.99715 22.2271 3.99715ZM22.2271 0C16.201 0 15.4466 0.0260118 13.0796 0.130059C10.7211 0.234107 9.09974 0.615614 7.6951 1.16186C6.22976 1.73412 4.98987 2.48847 3.75864 3.72837C2.51874 4.95959 1.7644 6.19949 1.19214 7.65616C0.645887 9.06947 0.26438 10.6822 0.160333 13.0406C0.0562853 15.4164 0.0302734 16.1707 0.0302734 22.1968C0.0302734 28.2229 0.0562853 28.9772 0.160333 31.3443C0.26438 33.7027 0.645887 35.3241 1.19214 36.7287C1.7644 38.1941 2.51874 39.434 3.75864 40.6652C4.98987 41.8964 6.22976 42.6594 7.68643 43.223C9.09974 43.7693 10.7125 44.1508 13.0709 44.2548C15.438 44.3589 16.1923 44.3849 22.2184 44.3849C28.2445 44.3849 28.9988 44.3589 31.3659 44.2548C33.7243 44.1508 35.3457 43.7693 36.7503 43.223C38.207 42.6594 39.4469 41.8964 40.6781 40.6652C41.9094 39.434 42.6724 38.1941 43.236 36.7374C43.7822 35.3241 44.1637 33.7114 44.2678 31.353C44.3718 28.9859 44.3978 28.2315 44.3978 22.2055C44.3978 16.1794 44.3718 15.425 44.2678 13.058C44.1637 10.6995 43.7822 9.07814 43.236 7.6735C42.6897 6.19949 41.9354 4.95959 40.6955 3.72837C39.4642 2.49714 38.2243 1.73412 36.7677 1.17053C35.3544 0.624284 33.7416 0.242777 31.3832 0.13873C29.0075 0.0260119 28.2531 0 22.2271 0Z" fill="url(#paint0_linear_2_96)"/>
<path d="M22.2271 10.7949C15.9322 10.7949 10.8252 15.9019 10.8252 22.1968C10.8252 28.4916 15.9322 33.5986 22.2271 33.5986C28.5219 33.5986 33.6289 28.4916 33.6289 22.1968C33.6289 15.9019 28.5219 10.7949 22.2271 10.7949ZM22.2271 29.5928C18.1432 29.5928 14.831 26.2806 14.831 22.1968C14.831 18.1129 18.1432 14.8007 22.2271 14.8007C26.3109 14.8007 29.6231 18.1129 29.6231 22.1968C29.6231 26.2806 26.3109 29.5928 22.2271 29.5928Z" fill="url(#paint1_linear_2_96)"/>
<path d="M36.7417 10.3445C36.7417 11.8185 35.5452 13.0064 34.0798 13.0064C32.6058 13.0064 31.418 11.8098 31.418 10.3445C31.418 8.87049 32.6145 7.68262 34.0798 7.68262C35.5452 7.68262 36.7417 8.87916 36.7417 10.3445Z" fill="url(#paint2_linear_2_96)"/>
</g>
<defs>
<linearGradient id="paint0_linear_2_96" x1="22.214" y1="0" x2="22.214" y2="44.3849" gradientUnits="userSpaceOnUse">
<stop stop-color="#FF0190"/>
<stop offset="1" stop-color="#B903FD"/>
</linearGradient>
<linearGradient id="paint1_linear_2_96" x1="22.2271" y1="10.7949" x2="22.2271" y2="33.5986" gradientUnits="userSpaceOnUse">
<stop stop-color="#FF0190"/>
<stop offset="1" stop-color="#B903FD"/>
</linearGradient>
<linearGradient id="paint2_linear_2_96" x1="34.0798" y1="7.68262" x2="34.0798" y2="13.0064" gradientUnits="userSpaceOnUse">
<stop stop-color="#FF0190"/>
<stop offset="1" stop-color="#B903FD"/>
</linearGradient>
<clipPath id="clip0_2_96">
<rect width="44.3936" height="44.3936" fill="white" transform="translate(0.0302734)"/>
</clipPath>
</defs>
</svg>
