<svg width="45" height="45" viewBox="0 0 45 45" fill="none" xmlns="http://www.w3.org/2000/svg">
<g clip-path="url(#clip0_2_78)">
<rect x="5" y="3" width="36" height="38" fill="white"/>
<rect x="5" y="3" width="36" height="38" fill="white"/>
<path d="M41.6926 0H3.85328C2.98414 0 2.15059 0.345266 1.53602 0.959843C0.921438 1.57442 0.576172 2.40797 0.576172 3.27711V41.1164C0.576172 41.9856 0.921438 42.8191 1.53602 43.4337C2.15059 44.0483 2.98414 44.3936 3.85328 44.3936H41.6926C42.5618 44.3936 43.3953 44.0483 44.0099 43.4337C44.6245 42.8191 44.9697 41.9856 44.9697 41.1164V3.27711C44.9697 2.40797 44.6245 1.57442 44.0099 0.959843C43.3953 0.345266 42.5618 0 41.6926 0ZM13.8079 34.4805C13.8079 36.3236 12.3138 37.8178 10.4707 37.8178C8.6276 37.8178 7.13347 36.3236 7.13347 34.4805V19.954C7.13347 18.1109 8.6276 16.6168 10.4707 16.6168C12.3138 16.6168 13.8079 18.1109 13.8079 19.954V34.4805ZM10.4661 13.6788C9.70897 13.6745 8.9701 13.4461 8.3427 13.0223C7.71531 12.5985 7.22751 11.9983 6.94087 11.2976C6.65423 10.5968 6.5816 9.82687 6.73214 9.08487C6.88267 8.34288 7.24964 7.6621 7.78671 7.12846C8.32379 6.59482 9.00691 6.23224 9.74985 6.08647C10.4928 5.9407 11.2623 6.01827 11.9612 6.30941C12.6601 6.60054 13.2571 7.09218 13.6768 7.72228C14.0966 8.35238 14.3203 9.09271 14.3197 9.84982C14.3268 10.3567 14.2318 10.8598 14.0404 11.3292C13.8489 11.7986 13.565 12.2247 13.2053 12.582C12.8457 12.9393 12.4179 13.2206 11.9473 13.409C11.4766 13.5974 10.9729 13.6892 10.4661 13.6788ZM38.4101 34.501C38.4097 36.3431 36.9162 37.8363 35.0741 37.8363C33.2316 37.8363 31.738 36.3426 31.738 34.5002V26.2539C31.738 22.838 30.2859 21.7837 28.4116 21.7837C26.4323 21.7837 24.4901 23.2758 24.4901 26.3402V34.499C24.4901 36.3421 22.996 37.8363 21.1529 37.8363C19.3098 37.8363 17.8157 36.3421 17.8157 34.499V19.8415C17.8157 18.069 19.2525 16.6322 21.025 16.6322H22.7652C23.5765 16.6322 24.2342 17.2899 24.2342 18.1012V19.5169C24.2342 19.5463 24.2581 19.5702 24.2875 19.5702C24.3077 19.5702 24.3259 19.5594 24.335 19.5413C24.9981 18.2335 27.2468 16.0372 30.6651 16.0372C34.3893 16.0372 38.4124 18.2476 38.4124 24.7217L38.4101 34.501Z" fill="url(#paint0_linear_2_78)"/>
</g>
<defs>
<linearGradient id="paint0_linear_2_78" x1="22.773" y1="0" x2="22.773" y2="44.3936" gradientUnits="userSpaceOnUse">
<stop stop-color="#FF0190"/>
<stop offset="1" stop-color="#B903FD"/>
</linearGradient>
<clipPath id="clip0_2_78">
<rect x="0.576172" width="44.3936" height="44.3936" rx="5" fill="white"/>
</clipPath>
</defs>
</svg>
