<svg width="45" height="45" viewBox="0 0 45 45" fill="none" xmlns="http://www.w3.org/2000/svg">
<g clip-path="url(#clip0_2_92)">
<path d="M22.1968 44.3936C34.4557 44.3936 44.3936 34.4557 44.3936 22.1968C44.3936 9.93784 34.4557 0 22.1968 0C9.93784 0 0 9.93784 0 22.1968C0 34.4557 9.93784 44.3936 22.1968 44.3936Z" fill="url(#paint0_linear_2_92)"/>
<path fill-rule="evenodd" clip-rule="evenodd" d="M10.0478 21.9623C16.5186 19.1431 20.8335 17.2845 22.9924 16.3865C29.1567 13.8226 30.4376 13.3772 31.2725 13.3625C31.4561 13.3592 31.8666 13.4047 32.1326 13.6205C32.3571 13.8027 32.4189 14.0489 32.4485 14.2216C32.4781 14.3944 32.5149 14.788 32.4856 15.0955C32.1516 18.6053 30.7062 27.1227 29.9708 31.0538C29.6597 32.7172 29.047 33.2749 28.4539 33.3295C27.1649 33.4481 26.1861 32.4776 24.9376 31.6592C22.984 30.3786 21.8803 29.5814 19.984 28.3318C17.7925 26.8876 19.2132 26.0939 20.4621 24.7967C20.789 24.4572 26.4684 19.2913 26.5783 18.8227C26.592 18.7641 26.6048 18.5456 26.475 18.4303C26.3452 18.3149 26.1537 18.3544 26.0154 18.3857C25.8195 18.4302 22.6986 20.493 16.6527 24.5742C15.7668 25.1825 14.9644 25.4788 14.2455 25.4633C13.453 25.4462 11.9285 25.0152 10.7951 24.6468C9.40507 24.1949 8.30026 23.956 8.39646 23.1886C8.44657 22.7889 8.99701 22.3802 10.0478 21.9623Z" fill="white"/>
</g>
<defs>
<linearGradient id="paint0_linear_2_92" x1="22.1968" y1="0" x2="22.1968" y2="44.3936" gradientUnits="userSpaceOnUse">
<stop stop-color="#FF0190"/>
<stop offset="1" stop-color="#B903FD"/>
</linearGradient>
<clipPath id="clip0_2_92">
<rect width="44.3936" height="44.3936" fill="white"/>
</clipPath>
</defs>
</svg>
