<svg width="45" height="45" viewBox="0 0 45 45" fill="none" xmlns="http://www.w3.org/2000/svg">
<path d="M31.8322 16.0248C34.687 18.0728 38.1842 19.2778 41.9614 19.2778V11.9834C41.2466 11.9836 40.5336 11.9088 39.8342 11.7601V17.5018C36.0573 17.5018 32.5605 16.2968 29.705 14.2489V29.1346C29.705 36.5812 23.6898 42.6174 16.2701 42.6174C13.5017 42.6174 10.9285 41.7774 8.79102 40.3369C11.2306 42.8403 14.6329 44.3932 18.3969 44.3932C25.817 44.3932 31.8325 38.357 31.8325 30.9102V16.0248H31.8322ZM34.4563 8.6657C32.9974 7.06611 32.0395 4.99894 31.8322 2.7136V1.77539H29.8163C30.3238 4.68006 32.0545 7.16164 34.4563 8.6657ZM13.4839 34.6226C12.6688 33.55 12.2283 32.238 12.2303 30.8888C12.2303 27.4831 14.9816 24.7216 18.376 24.7216C19.0086 24.7215 19.6374 24.8187 20.2402 25.0106V17.5533C19.5357 17.4564 18.8246 17.4152 18.1139 17.4303V23.2348C17.5106 23.0428 16.8815 22.9453 16.2488 22.9459C12.8544 22.9459 10.1032 25.7071 10.1032 29.1133C10.1032 31.5217 11.4784 33.6069 13.4839 34.6226Z" fill="#FF0190"/>
<path d="M29.705 14.2488C32.5605 16.2966 36.0573 17.5016 39.8342 17.5016V11.7599C37.7259 11.3092 35.8596 10.2036 34.4563 8.6657C32.0543 7.16149 30.3237 4.67991 29.8163 1.77539H24.5213V30.9099C24.5093 34.3063 21.7627 37.0565 18.3756 37.0565C16.3797 37.0565 14.6065 36.1017 13.4835 34.6226C11.4781 33.6069 10.1029 31.5216 10.1029 29.1134C10.1029 25.7075 12.8541 22.9461 16.2484 22.9461C16.8988 22.9461 17.5256 23.0477 18.1136 23.2349V17.4305C10.8243 17.5816 4.96191 23.5588 4.96191 30.91C4.96191 34.5797 6.42178 37.9064 8.79116 40.3371C10.9287 41.7774 13.5018 42.6175 16.2703 42.6175C23.6901 42.6175 29.7051 36.581 29.7051 29.1346V14.2488H29.705Z" fill="white"/>
<path d="M39.8343 11.7602V10.2077C37.9332 10.2106 36.0694 9.6763 34.4564 8.66587C35.8843 10.2347 37.7644 11.3164 39.8343 11.7602ZM29.8164 1.77571C29.768 1.49812 29.7309 1.2187 29.7051 0.93821V0H22.3941V29.1348C22.3824 32.5308 19.6359 35.281 16.2485 35.281C15.2541 35.281 14.3151 35.0441 13.4836 34.6231C14.6066 36.102 16.3798 37.0567 18.3757 37.0567C21.7625 37.0567 24.5096 34.3068 24.5214 30.9103V1.77571H29.8164ZM18.114 17.4308V15.778C17.5031 15.6942 16.8872 15.6522 16.2705 15.6525C8.85013 15.6523 2.83496 21.6888 2.83496 29.1348C2.83496 33.803 5.19903 37.917 8.79141 40.3371C6.42203 37.9065 4.96217 34.5797 4.96217 30.9102C4.96217 23.5591 10.8244 17.5819 18.114 17.4308Z" fill="#B903FC"/>
</svg>
