<svg width="45" height="45" viewBox="0 0 45 45" fill="none" xmlns="http://www.w3.org/2000/svg">
<g clip-path="url(#clip0_2_76)">
<path d="M13.9609 40.2332C30.7132 40.2332 39.8761 26.354 39.8761 14.318C39.8761 13.9238 39.8761 13.5314 39.8494 13.1407C41.632 11.8514 43.1707 10.2549 44.3936 8.42611C42.7314 9.16305 40.9679 9.64611 39.1622 9.85914C41.0637 8.72098 42.4868 6.93061 43.1665 4.82135C41.3787 5.88238 39.4227 6.63007 37.3829 7.03215C36.0097 5.57193 34.1934 4.60501 32.2153 4.28102C30.2371 3.95703 28.2073 4.29402 26.44 5.23986C24.6727 6.1857 23.2663 7.68765 22.4386 9.51329C21.6109 11.3389 21.4079 13.3865 21.8612 15.3391C18.24 15.1574 14.6975 14.2163 11.4636 12.5769C8.22974 10.9375 5.37673 8.63635 3.08979 5.82287C1.92507 7.82797 1.56834 10.2016 2.09223 12.4605C2.61612 14.7194 3.98125 16.6937 5.90967 17.9814C4.46013 17.9389 3.04216 17.5479 1.77574 16.8414V16.9568C1.77632 19.0596 2.50426 21.0976 3.8361 22.7249C5.16795 24.3523 7.02169 25.4688 9.08292 25.8852C7.74202 26.251 6.3351 26.3044 4.9703 26.0415C5.55255 27.8511 6.68572 29.4336 8.2114 30.5677C9.73708 31.7017 11.579 32.3307 13.4797 32.3667C11.5912 33.851 9.42866 34.9485 7.11568 35.5963C4.80271 36.2441 2.3847 36.4295 0 36.1419C4.16529 38.8148 9.01175 40.2326 13.9609 40.2261" fill="url(#paint0_linear_2_76)"/>
</g>
<defs>
<linearGradient id="paint0_linear_2_76" x1="22.1968" y1="4.16113" x2="22.1968" y2="40.2332" gradientUnits="userSpaceOnUse">
<stop stop-color="#FF0190"/>
<stop offset="1" stop-color="#B903FD"/>
</linearGradient>
<clipPath id="clip0_2_76">
<rect width="44.3936" height="44.3936" fill="white"/>
</clipPath>
</defs>
</svg>
