<svg width="45" height="45" viewBox="0 0 45 45" fill="none" xmlns="http://www.w3.org/2000/svg">
<g clip-path="url(#clip0_2_82)">
<path d="M44.0552 11.4409C43.8042 10.4965 43.3096 9.6345 42.6208 8.94128C41.932 8.24807 41.0732 7.74792 40.1304 7.49089C36.6596 6.55762 22.7866 6.55762 22.7866 6.55762C22.7866 6.55762 8.91364 6.55762 5.44287 7.49089C4.50005 7.74792 3.64127 8.24807 2.95248 8.94128C2.2637 9.6345 1.76906 10.4965 1.51807 11.4409C0.589844 14.9268 0.589844 22.1963 0.589844 22.1963C0.589844 22.1963 0.589844 29.4657 1.51807 32.9516C1.76906 33.8961 2.2637 34.758 2.95248 35.4512C3.64127 36.1444 4.50005 36.6446 5.44287 36.9016C8.91364 37.8349 22.7866 37.8349 22.7866 37.8349C22.7866 37.8349 36.6596 37.8349 40.1304 36.9016C41.0732 36.6446 41.932 36.1444 42.6208 35.4512C43.3096 34.758 43.8042 33.8961 44.0552 32.9516C44.9834 29.4657 44.9834 22.1963 44.9834 22.1963C44.9834 22.1963 44.9834 14.9268 44.0552 11.4409Z" fill="url(#paint0_linear_2_82)"/>
<path d="M18.2461 28.7977V15.5957L29.8489 22.1967L18.2461 28.7977Z" fill="#FEFEFE"/>
</g>
<defs>
<linearGradient id="paint0_linear_2_82" x1="22.7866" y1="6.55762" x2="22.7866" y2="37.8349" gradientUnits="userSpaceOnUse">
<stop stop-color="#FF0190"/>
<stop offset="1" stop-color="#B903FD"/>
</linearGradient>
<clipPath id="clip0_2_82">
<rect width="44.3936" height="44.3936" fill="white" transform="translate(0.545898)"/>
</clipPath>
</defs>
</svg>
