<?xml version="1.0" encoding="UTF-8" standalone="no"?>
<!DOCTYPE svg PUBLIC "-//W3C//DTD SVG 1.1//EN" "http://www.w3.org/Graphics/SVG/1.1/DTD/svg11.dtd">
<svg width="100%" height="100%" viewBox="0 0 1825 161" version="1.1" xmlns="http://www.w3.org/2000/svg" xmlns:xlink="http://www.w3.org/1999/xlink" xml:space="preserve" xmlns:serif="http://www.serif.com/" style="fill-rule:evenodd;clip-rule:evenodd;stroke-linejoin:round;stroke-miterlimit:2;">
    <g transform="matrix(1.24591,0,0,1.30923,75.1713,59.118)">
        <rect x="-60.334" y="-85.278" width="1464.79" height="164.573" style="fill:rgb(255,145,0);"/>
        <clipPath id="_clip1">
            <rect x="-60.334" y="-85.278" width="1464.79" height="164.573"/>
        </clipPath>
        <g clip-path="url(#_clip1)">
            <g transform="matrix(1.48941,-0.308037,0.232708,1.01898,-1101.94,139.597)">
                <path d="M1575.81,-338.676C1440.16,-347.821 1539.39,261.149 1539.39,355.175C1539.39,449.2 1014.64,379.119 878.684,379.119C742.726,379.119 497.736,601.714 728.926,621.527C945.178,640.061 631.196,679.734 763.976,251.058C766.411,243.196 746.583,174.074 758.425,179.515C875.562,233.327 976.302,139.062 1088.08,138.42C1103.56,138.331 1116.66,156.732 1132.76,160.136C1332.89,202.454 1200.01,125.582 1184.74,31.393C1173.49,-38.036 1078.37,-81.817 1116.84,-101.489C1151.95,-119.443 1086.57,-24.096 1078.49,-29.604C588.797,-363.606 1692.83,-330.786 1575.81,-338.676Z" style="fill:rgb(251,184,32);"/>
            </g>
            <g transform="matrix(1.47312,-0.372271,0.281234,1.00784,-875.133,190.068)">
                <path d="M1575.81,-338.676C1440.16,-347.821 1539.39,261.149 1539.39,355.175C1539.39,449.2 1014.64,379.119 878.684,379.119C742.726,379.119 497.736,601.714 728.926,621.527C945.178,640.061 631.196,679.734 763.976,251.058C765.184,247.158 772.912,230.503 781.871,215.298C790.972,199.854 801.343,185.905 807.443,188.338C813.221,190.643 818.812,192.621 824.233,194.301C939.632,230.058 978.486,130.775 1112.4,173.714C1307.2,236.17 1200.01,125.582 1184.74,31.393C1173.49,-38.036 1078.37,-81.817 1116.84,-101.489C1151.95,-119.443 1086.57,-24.096 1078.49,-29.604C588.797,-363.606 1692.83,-330.786 1575.81,-338.676Z" style="fill:rgb(101,201,255);"/>
            </g>
            <g transform="matrix(1.74925,-0.442051,0.355294,1.27324,-1019.58,267.639)">
                <path d="M1575.81,-338.676C1440.16,-347.821 1539.39,261.149 1539.39,355.175C1539.39,449.2 1014.64,379.119 878.684,379.119C742.726,379.119 499.443,655.861 728.926,621.527C949.272,588.561 435.695,100.504 777.616,198.859C809.409,208.004 844.248,195.944 881.771,183.945C915.273,173.231 950.915,162.566 988.44,167.088C1160.23,187.785 1179.94,112.953 1174.05,15.219C1169.79,-55.638 1078.37,-81.817 1116.84,-101.489C1151.95,-119.443 1086.57,-24.096 1078.49,-29.604C588.797,-363.606 1692.83,-330.786 1575.81,-338.676Z" style="fill:rgb(0,152,255);"/>
            </g>
            <g transform="matrix(1.74925,-0.442051,0.355294,1.27324,-832.688,312.034)">
                <path d="M1575.81,-338.676C1440.16,-347.821 1539.39,261.149 1539.39,355.175C1539.39,449.2 1014.64,379.119 878.684,379.119C742.726,379.119 499.827,658.332 728.926,621.527C915.384,591.573 336.885,-58.55 737.165,161.172C790.294,190.336 753.321,227.929 772.683,192.32C784.613,170.38 867.076,130.088 916.393,144.065C1117.98,201.193 1191.76,85.919 1173.24,15.714C1156.98,-45.968 1089.83,-79.021 1116.84,-101.489C1147.15,-126.709 1086.57,-24.096 1078.49,-29.604C588.797,-363.606 1692.83,-330.786 1575.81,-338.676Z" style="fill:rgb(0,103,255);"/>
            </g>
        </g>
    </g>
</svg>
