<svg width="35" height="27" viewBox="0 0 35 27" fill="none" xmlns="http://www.w3.org/2000/svg">
<path d="M0 4.375C0 3.21468 0.460936 2.10188 1.28141 1.28141C2.10188 0.460936 3.21468 0 4.375 0H30.625C31.7853 0 32.8981 0.460936 33.7186 1.28141C34.5391 2.10188 35 3.21468 35 4.375V6.5625H0V4.375ZM0 10.9375V21.875C0 23.0353 0.460936 24.1481 1.28141 24.9686C2.10188 25.7891 3.21468 26.25 4.375 26.25H30.625C31.7853 26.25 32.8981 25.7891 33.7186 24.9686C34.5391 24.1481 35 23.0353 35 21.875V10.9375H0ZM6.5625 15.3125H8.75C9.33016 15.3125 9.88656 15.543 10.2968 15.9532C10.707 16.3634 10.9375 16.9198 10.9375 17.5V19.6875C10.9375 20.2677 10.707 20.8241 10.2968 21.2343C9.88656 21.6445 9.33016 21.875 8.75 21.875H6.5625C5.98234 21.875 5.42594 21.6445 5.0157 21.2343C4.60547 20.8241 4.375 20.2677 4.375 19.6875V17.5C4.375 16.9198 4.60547 16.3634 5.0157 15.9532C5.42594 15.543 5.98234 15.3125 6.5625 15.3125Z" fill="#171717"/>
</svg>
