<svg width="34" height="34" viewBox="0 0 34 34" fill="none" xmlns="http://www.w3.org/2000/svg">
<path d="M13.25 9.5H28.25C29.2446 9.5 30.1984 9.89509 30.9016 10.5984C31.6049 11.3016 32 12.2554 32 13.25V28.25C32 29.2446 31.6049 30.1984 30.9016 30.9016C30.1984 31.6049 29.2446 32 28.25 32H13.25C12.2554 32 11.3016 31.6049 10.5984 30.9016C9.89509 30.1984 9.5 29.2446 9.5 28.25V13.25M13.25 9.5C12.2554 9.5 11.3016 9.89509 10.5984 10.5984M13.25 9.5H24.5V5.75C24.5 4.75544 24.1049 3.80161 23.4016 3.09835C22.6984 2.39509 21.7446 2 20.75 2H5.75C4.75544 2 3.80161 2.39509 3.09835 3.09835C2.39509 3.80161 2 4.75544 2 5.75V20.75C2 21.7446 2.39509 22.6984 3.09835 23.4016C3.80161 24.1049 4.75544 24.5 5.75 24.5H9.5V13.25M13.25 9.5C11.9936 9.62542 11.4047 9.86757 10.5984 10.5984M10.5984 10.5984C10.6075 10.4675 9.81312 11.799 9.5 13.25M10.5984 10.5984C9.96325 11.3463 9.63471 11.8659 9.5 13.25" stroke="url(#paint0_linear_173_3185)" stroke-width="2.90625" stroke-linecap="round" stroke-linejoin="round"/>
<defs>
<linearGradient id="paint0_linear_173_3185" x1="17" y1="2" x2="17" y2="32" gradientUnits="userSpaceOnUse">
<stop stop-color="#41FA00"/>
<stop offset="1" stop-color="#39DB21"/>
</linearGradient>
</defs>
</svg>
