<svg width="51" height="51" viewBox="0 0 51 51" fill="none" xmlns="http://www.w3.org/2000/svg">
<circle cx="26" cy="25.5029" r="25" fill="white"/>
<path d="M50.9942 25.6531C50.9942 11.7611 39.8018 0.5 25.9973 0.5C12.1865 0.503125 0.994141 11.7611 0.994141 25.6562C0.994141 38.2078 10.1367 48.6127 22.0853 50.5V32.9241H15.7423V25.6562H22.0915V20.1101C22.0915 13.8077 25.8254 10.3269 31.5341 10.3269C34.2712 10.3269 37.1303 10.8175 37.1303 10.8175V17.0042H33.9775C30.8748 17.0042 29.9062 18.9446 29.9062 20.9349V25.6531H36.8365L35.7304 32.921H29.903V50.4969C41.8515 48.6096 50.9942 38.2047 50.9942 25.6531Z" fill="#1877F2"/>
</svg>
