<svg width="34" height="35" viewBox="0 0 34 35" fill="none" xmlns="http://www.w3.org/2000/svg">
<circle cx="16.756" cy="18.5411" r="16.1695" fill="white"/>
<path d="M17.0012 0.90155C26.3378 0.90155 33.9057 8.4695 33.9057 17.8061C33.9057 27.1427 26.3378 34.7106 17.0012 34.7106C7.66463 34.7106 0.0966797 27.1427 0.0966797 17.8061C0.0966797 8.4695 7.66463 0.90155 17.0012 0.90155ZM20.5427 6.77587C20.2849 6.64909 20.0271 6.77587 19.9637 7.03261C19.8993 7.09706 19.8993 7.16151 19.8993 7.28935V8.1874L19.9098 8.29728C19.965 8.51464 20.0986 8.70393 20.2849 8.82872C25.3077 10.6248 27.8835 16.2033 26.0155 21.1405C25.0499 23.8347 22.9252 25.8854 20.2849 26.8479C20.0271 26.9757 19.8993 27.168 19.8993 27.4892V28.3873L19.9046 28.4802C19.9146 28.5817 19.957 28.6772 20.0255 28.7527C20.094 28.8283 20.1849 28.8798 20.2849 28.8997C20.3494 28.8997 20.4783 28.8997 20.5427 28.8363C21.9918 28.3837 23.3371 27.649 24.5011 26.6744C25.6651 25.6998 26.6248 24.5046 27.325 23.1576C28.0251 21.8106 28.4519 20.3384 28.5808 18.8257C28.7097 17.3131 28.538 15.7899 28.0758 14.3438C26.9178 10.6882 24.0842 7.93066 20.5427 6.77693V6.77587ZM13.7175 6.71248C13.6531 6.71248 13.5242 6.71248 13.4597 6.77587C12.0106 7.22841 10.6653 7.96313 9.50133 8.93772C8.33733 9.91232 7.37762 11.1075 6.67745 12.4546C5.97728 13.8016 5.55047 15.2738 5.42162 16.7864C5.29276 18.2991 5.46439 19.8223 5.92663 21.2683C7.08459 24.8605 9.85376 27.6181 13.4597 28.7718C13.7175 28.8997 13.9753 28.7718 14.0387 28.5151C14.1031 28.4517 14.1031 28.3862 14.1031 28.2584V27.3603L14.0926 27.2758C14.0482 27.0972 13.8823 26.8933 13.7175 26.7834C8.69475 24.9873 6.11892 19.4088 7.98687 14.4717C8.95254 11.7775 11.0772 9.72677 13.7175 8.76427C13.9753 8.63643 14.1031 8.44414 14.1031 8.12295V7.2249L14.0979 7.13193C14.0878 7.03047 14.0454 6.93493 13.9769 6.85941C13.9084 6.78389 13.8175 6.73238 13.7175 6.71248ZM17.4523 10.0469H16.4856L16.3926 10.0554C16.1813 10.0976 16.0271 10.2793 15.97 10.5604V12.0353L15.7513 12.0691C13.9468 12.3903 12.8163 13.6359 12.8163 15.1774C12.8163 17.2926 14.1031 18.1262 16.8079 18.4474C18.6114 18.7675 19.1903 19.1532 19.1903 20.1791C19.1903 21.2039 18.2891 21.9097 17.0657 21.9097C15.3911 21.9097 14.8121 21.2049 14.6187 20.2424C14.5553 19.9868 14.3609 19.8579 14.1676 19.8579H13.073L12.9896 19.8653C12.8854 19.8821 12.7908 19.9361 12.7234 20.0173C12.656 20.0985 12.6203 20.2014 12.6229 20.3069V20.3703L12.6578 20.5605C12.9642 22.065 13.9954 23.1416 16.0355 23.449V24.9884L16.044 25.0814C16.0862 25.2906 16.269 25.4448 16.5511 25.5008H17.5168L17.6098 25.4924C17.8211 25.4501 17.9753 25.2684 18.0324 24.9884V23.448L18.2511 23.4057C20.0609 23.0232 21.2516 21.7142 21.2516 20.0491C21.2516 17.805 19.8993 17.0359 17.1946 16.7147C15.2622 16.4579 14.8765 15.9455 14.8765 15.0475C14.8765 14.1494 15.521 13.5726 16.8079 13.5726C17.9669 13.5726 18.6114 13.9571 18.9325 14.9196C18.966 15.0127 19.0272 15.0933 19.1079 15.1505C19.1885 15.2078 19.2848 15.2389 19.3837 15.2398H20.4138L20.4973 15.2334C20.6018 15.2168 20.6968 15.1627 20.7644 15.0813C20.8321 14.9998 20.8678 14.8966 20.8649 14.7907V14.7273L20.8259 14.5446C20.6672 13.8878 20.3055 13.2979 19.7923 12.8585C19.279 12.4192 18.6402 12.153 17.9669 12.0976V10.5604L17.9584 10.4674C17.9162 10.2571 17.7334 10.1029 17.4513 10.0469H17.4523Z" fill="#2775CA"/>
</svg>
