<?xml version="1.0" encoding="UTF-8" standalone="no"?>
<!DOCTYPE svg PUBLIC "-//W3C//DTD SVG 1.1//EN" "http://www.w3.org/Graphics/SVG/1.1/DTD/svg11.dtd">
<svg width="100%" height="100%" viewBox="0 0 1825 631" version="1.1" xmlns="http://www.w3.org/2000/svg" xmlns:xlink="http://www.w3.org/1999/xlink" xml:space="preserve" xmlns:serif="http://www.serif.com/" style="fill-rule:evenodd;clip-rule:evenodd;stroke-linejoin:round;stroke-miterlimit:2;">
    <g transform="matrix(1.21376,0,0,1.61259,86.2689,-5140.01)">
        <rect x="-71.076" y="3186.38" width="1503.6" height="394.824" style="fill:url(#_Linear1);"/>
        <clipPath id="_clip2">
            <rect x="-71.076" y="3186.38" width="1503.6" height="394.824"/>
        </clipPath>
        <g clip-path="url(#_clip2)">
            <g transform="matrix(4.45536,-1.37694e-16,-8.55439e-16,1.68956,-4003.28,2839.94)">
                <path d="M1575.81,-338.676C1440.16,-347.821 1539.39,261.149 1539.39,355.175C1539.39,449.2 1014.64,379.119 878.684,379.119C742.726,379.119 497.736,601.714 728.926,621.527C945.178,640.061 631.196,679.734 763.976,251.058C766.411,243.196 795.338,183.509 807.443,188.338C936.19,239.701 972.194,128.758 1112.4,173.714C1307.2,236.17 1200.01,125.582 1184.74,31.393C1173.49,-38.036 1078.37,-81.817 1116.84,-101.489C1151.95,-119.443 1086.57,-24.096 1078.49,-29.604C588.797,-363.606 1692.83,-330.786 1575.81,-338.676Z" style="fill:rgb(0,193,255);"/>
            </g>
            <g transform="matrix(5.2905,-2.75389e-16,-1.34426e-15,2.13448,-4472.52,2904.25)">
                <path d="M1575.81,-338.676C1440.16,-347.821 1539.39,261.149 1539.39,355.175C1539.39,449.2 1014.64,379.119 878.684,379.119C742.726,379.119 499.443,655.861 728.926,621.527C949.272,588.561 431.631,123.234 773.553,221.588C805.346,230.734 831.038,186.544 868.561,174.545C902.063,163.831 951.735,158.072 988.44,167.088C1163.53,210.09 1180.36,115.783 1174.05,15.219C1169.61,-55.627 1078.37,-81.817 1116.84,-101.489C1151.95,-119.443 1086.57,-24.096 1078.49,-29.604C588.797,-363.606 1692.83,-330.786 1575.81,-338.676Z" style="fill:rgb(251,184,32);"/>
            </g>
            <g transform="matrix(5.2905,-2.75389e-16,-1.34426e-15,2.13448,-4251.94,3071.83)">
                <path d="M1575.81,-338.676C1440.16,-347.821 1539.39,261.149 1539.39,355.175C1539.39,449.2 1014.64,379.119 878.684,379.119C742.726,379.119 499.827,658.332 728.926,621.527C915.384,591.573 336.885,-58.55 737.165,161.172C790.294,190.336 753.321,227.929 772.683,192.32C784.613,170.38 871.742,129.09 920.078,146.153C1121.14,217.131 1191.65,88.705 1173.24,15.714C1157.64,-46.14 1089.83,-79.021 1116.84,-101.489C1147.15,-126.709 1086.57,-24.096 1078.49,-29.604C588.797,-363.606 1692.83,-330.786 1575.81,-338.676Z" style="fill:rgb(255,145,0);"/>
            </g>
        </g>
    </g>
    <g transform="matrix(1.21376,0,0,0.182339,86.2689,-17.9943)">
        <rect x="-71.076" y="3186.38" width="1503.6" height="394.824" style="fill:rgb(255,56,30);"/>
    </g>
    <defs>
        <linearGradient id="_Linear1" x1="0" y1="0" x2="1" y2="0" gradientUnits="userSpaceOnUse" gradientTransform="matrix(1.33582e-13,1229.03,-2181.56,7.52564e-14,682.323,2878.48)"><stop offset="0" style="stop-color:rgb(5,160,255);stop-opacity:1"/><stop offset="1" style="stop-color:rgb(0,83,255);stop-opacity:1"/></linearGradient>
    </defs>
</svg>
